# xmcd
#
# Track frame offsets:
#	150
#	15345
#	25515
#	37015
#	58507
#	74825
#	89185
#	105287
#	119607
#	134975
#	153875
#	166162
#	182012
#	197587
#
# Disc length: 2995 seconds
#
# Revision: 0
# Processed by: cddbd v1.4PL0 Copyright (c) Steve Scherf et al.
# Submitted via: audiograbber 1.81.02
#
DISCID=be0bb10e
DTITLE=Various Artist - Tribute To Tradition
DYEAR=1998
DGENRE=Country
TTITLE0=Dixie Chicks - Stand By Your Man
TTITLE1=Randy Travis - Mama Tried
TTITLE2=Patty Loveless - Wine, Women And Song
TTITLE3=Trace Adkins - I Never Go Round Mirrors
TTITLE4=Mary Chapin Carpenter - Oh, Lonesome Me
TTITLE5=Joe Diffie - Behind Closed Doors
TTITLE6=Wade Hayes - She's Actin' Single (I'm Drinkin' Doubles)
TTITLE7=Martina McBride - 'Til I Can Make It On My Own
TTITLE8=Colin Raye - Cold Cold Heart
TTITLE9=Alison Kraus - Three Bells
TTITLE10=Rick Trevino - City Lights
TTITLE11=Colin Raye and Joe Diffie - Honky Tonk Heroes (Like Me)
TTITLE12=Doug Stone - Gone Out Of My Mind
TTITLE13=Numerous Artists - Same Old Train
EXTD=Corrected the Title/Artist swap
EXTT0=
EXTT1=
EXTT2=
EXTT3=
EXTT4=
EXTT5=
EXTT6=
EXTT7=
EXTT8=
EXTT9=
EXTT10=
EXTT11=
EXTT12=
EXTT13=
PLAYORDER=
